<svg width="73" height="72" viewBox="0 0 73 72" fill="none" xmlns="http://www.w3.org/2000/svg">
<path d="M62.7753 28.6176C60.6366 28.6176 58.7546 29.4895 57.3716 30.8535C52.2815 27.3801 45.4235 25.1441 37.8241 24.9051L41.7735 7.35508L54.3489 10.1395C54.3489 13.177 56.8583 15.652 59.938 15.652C63.0747 15.652 65.5983 13.1066 65.5983 10.0691C65.5983 7.03164 63.089 4.48633 59.938 4.48633C57.7423 4.48633 55.846 5.79414 54.905 7.58008L41.0179 4.54258C40.3192 4.35977 39.6349 4.85195 39.4495 5.54102L35.1151 24.891C27.5727 25.2004 20.786 27.4363 15.6817 30.9098C14.2987 29.4895 12.3454 28.6176 10.2067 28.6176C2.27938 28.6176 -0.31554 39.1082 6.94169 42.6941C6.68505 43.8051 6.57098 44.9863 6.57098 46.1676C6.57098 57.952 20.0304 67.5004 36.5552 67.5004C53.1513 67.5004 66.6106 57.952 66.6106 46.1676C66.6106 44.9863 66.4823 43.7488 66.1686 42.6379C73.2833 39.0379 70.6599 28.6176 62.7753 28.6176V28.6176ZM18.4477 43.4395C18.4477 40.3457 20.9571 37.8566 24.1081 37.8566C27.1878 37.8566 29.6972 40.3316 29.6972 43.4395C29.6972 46.477 27.1878 48.952 24.1081 48.952C20.9714 48.966 18.4477 46.477 18.4477 43.4395V43.4395ZM49.0022 56.5879C43.8124 61.7066 29.1696 61.7066 23.9798 56.5879C23.4095 56.0957 23.4095 55.2238 23.9798 54.6613C24.4788 54.1691 25.3628 54.1691 25.8618 54.6613C29.8255 58.6691 42.9712 58.7395 47.1059 54.6613C47.605 54.1691 48.489 54.1691 48.988 54.6613C49.5726 55.2238 49.5726 56.0957 49.0022 56.5879ZM48.8882 48.966C45.8085 48.966 43.2991 46.491 43.2991 43.4535C43.2991 40.3598 45.8085 37.8707 48.8882 37.8707C52.0249 37.8707 54.5485 40.3457 54.5485 43.4535C54.5343 46.477 52.0249 48.966 48.8882 48.966Z" fill="white"/>
</svg>
