<svg width="82" height="82" viewBox="0 0 82 82" fill="none" xmlns="http://www.w3.org/2000/svg">
<path d="M80.782 16.8695C77.929 18.1337 74.8643 18.9879 71.6424 19.3739C74.9668 17.3847 77.4539 14.254 78.6397 10.5658C75.5163 12.421 72.098 13.7269 68.5332 14.4266C66.136 11.8671 62.9608 10.1706 59.5007 9.60048C56.0405 9.0304 52.4889 9.61865 49.3973 11.2739C46.3057 12.9291 43.847 15.5588 42.4031 18.7545C40.9591 21.9503 40.6106 25.5333 41.4117 28.9474C35.083 28.6297 28.8918 26.9847 23.2399 24.1194C17.588 21.254 12.6018 17.2322 8.60487 12.3151C7.23821 14.6726 6.45238 17.4059 6.45238 20.3169C6.45085 22.9375 7.09619 25.5179 8.33113 27.8293C9.56607 30.1406 11.3524 32.1114 13.5317 33.5668C11.0043 33.4864 8.53269 32.8034 6.32254 31.5749V31.7799C6.32229 35.4553 7.59365 39.0176 9.92092 41.8624C12.2482 44.7072 15.488 46.6592 19.0906 47.3872C16.7461 48.0217 14.2879 48.1152 11.902 47.6605C12.9184 50.823 14.8984 53.5885 17.5646 55.5699C20.2309 57.5512 23.45 58.6491 26.7713 58.71C21.1332 63.136 14.1702 65.5368 7.00246 65.5263C5.73276 65.5266 4.46414 65.4525 3.20312 65.3042C10.4788 69.9822 18.9483 72.4649 27.5981 72.4553C56.879 72.4553 72.886 48.2038 72.886 27.1708C72.886 26.4874 72.869 25.7973 72.8382 25.1139C75.9518 22.8623 78.6394 20.074 80.7751 16.8798L80.782 16.8695V16.8695Z" fill="white"/>
</svg>
