<svg width="86" height="96" viewBox="0 0 86 96" fill="none" xmlns="http://www.w3.org/2000/svg">
<g clip-path="url(#clip0_534_51)">
<path d="M84.2106 26.0244C83.7236 24.0853 82.775 22.3298 81.4657 20.9444C80.1194 19.5164 78.4693 18.4949 76.6712 17.9764C69.9417 15.9964 42.9807 15.9964 42.9807 15.9964C31.741 15.8536 20.504 16.4815 9.33321 17.8764C7.53506 18.4333 5.88806 19.4775 4.53871 20.9164C3.21288 22.3404 2.25255 24.0964 1.75088 26.0204C0.545778 33.2674 -0.039742 40.6258 0.00221157 47.9964C-0.0407884 55.3604 0.543295 62.7164 1.75088 69.9724C2.24179 71.8884 3.19854 73.6364 4.52796 75.0484C5.85738 76.4604 7.51288 77.4804 9.33321 78.0204C16.1523 79.9964 42.9807 79.9964 42.9807 79.9964C54.2348 80.1393 65.4861 79.5115 76.6712 78.1164C78.4693 77.5979 80.1194 76.5764 81.4657 75.1484C82.7915 73.7364 83.734 71.9804 84.207 70.0684C85.4435 62.8242 86.0448 55.4628 86.0022 48.0884C86.0952 40.6828 85.4947 33.2867 84.2106 26.0204V26.0244ZM34.4094 61.6924V34.3044L56.841 48.0004L34.4094 61.6924Z" fill="white"/>
</g>
<defs>
<clipPath id="clip0_534_51">
<rect width="86" height="96" fill="white"/>
</clipPath>
</defs>
</svg>
