<svg width="81" height="82" viewBox="0 0 81 82" fill="none" xmlns="http://www.w3.org/2000/svg">
<path d="M40.4981 30.3254C34.692 30.3254 29.9538 35.1221 29.9538 40.9998C29.9538 46.8776 34.692 51.6743 40.4981 51.6743C46.3041 51.6743 51.0423 46.8776 51.0423 40.9998C51.0423 35.1221 46.3041 30.3254 40.4981 30.3254ZM72.1229 40.9998C72.1229 36.5795 72.1624 32.1993 71.9172 27.787C71.672 22.662 70.5171 18.1135 66.8151 14.3659C63.1053 10.6102 58.6202 9.44906 53.5577 9.20082C49.1913 8.95258 44.8645 8.99262 40.506 8.99262C36.1396 8.99262 31.8127 8.95258 27.4542 9.20082C22.3917 9.44906 17.8987 10.6182 14.1968 14.3659C10.4869 18.1215 9.33995 22.662 9.09474 27.787C8.84952 32.2073 8.88907 36.5875 8.88907 40.9998C8.88907 45.4121 8.84952 49.8004 9.09474 54.2127C9.33995 59.3377 10.4948 63.8862 14.1968 67.6338C17.9066 71.3895 22.3917 72.5506 27.4542 72.7989C31.8206 73.0471 36.1475 73.0071 40.506 73.0071C44.8724 73.0071 49.1992 73.0471 53.5577 72.7989C58.6202 72.5506 63.1132 71.3815 66.8151 67.6338C70.525 63.8782 71.672 59.3377 71.9172 54.2127C72.1703 49.8004 72.1229 45.4202 72.1229 40.9998V40.9998ZM40.4981 57.4239C31.52 57.4239 24.2743 50.0887 24.2743 40.9998C24.2743 31.911 31.52 24.5758 40.4981 24.5758C49.4761 24.5758 56.7218 31.911 56.7218 40.9998C56.7218 50.0887 49.4761 57.4239 40.4981 57.4239ZM57.3862 27.7389C55.29 27.7389 53.5973 26.0252 53.5973 23.9032C53.5973 21.7811 55.29 20.0674 57.3862 20.0674C59.4824 20.0674 61.1752 21.7811 61.1752 23.9032C61.1758 24.4071 61.0782 24.9061 60.8881 25.3718C60.6979 25.8374 60.4188 26.2605 60.0668 26.6169C59.7149 26.9732 59.2969 27.2557 58.837 27.4482C58.377 27.6408 57.884 27.7395 57.3862 27.7389V27.7389Z" fill="white"/>
</svg>
