<svg width="83" height="82" viewBox="0 0 83 82" fill="none" xmlns="http://www.w3.org/2000/svg">
<g clip-path="url(#clip0_534_48)">
<path d="M70.2646 15.3509C64.9734 12.9934 59.3017 11.2509 53.3707 10.2601C53.3178 10.2501 53.2632 10.2565 53.2142 10.2786C53.1653 10.3006 53.1245 10.3371 53.0975 10.3831C52.3712 11.6438 51.562 13.2872 50.9948 14.5856C44.7044 13.6571 38.3093 13.6571 32.0189 14.5856C31.3872 13.1467 30.6748 11.7437 29.8851 10.3831C29.8584 10.3366 29.8179 10.2992 29.769 10.276C29.7202 10.2528 29.6654 10.2449 29.6119 10.2532C23.6843 11.2441 18.0127 12.9866 12.718 15.3475C12.6724 15.3664 12.6338 15.3986 12.6073 15.4397C1.84495 31.071 -1.105 46.3162 0.344037 61.37C0.348069 61.4069 0.359653 61.4425 0.378084 61.4749C0.396515 61.5072 0.421407 61.5354 0.451245 61.5579C6.73294 66.0762 13.7393 69.5181 21.177 71.7396C21.2289 71.7554 21.2843 71.7553 21.3362 71.7395C21.388 71.7236 21.4338 71.6927 21.4675 71.6507C23.0653 69.5324 24.4901 67.2945 25.7075 64.9438C25.7801 64.8072 25.7109 64.6432 25.5657 64.5885C23.3316 63.7573 21.167 62.7543 19.0917 61.5887C19.0544 61.5676 19.0229 61.5378 19.0002 61.5018C18.9775 61.4658 18.9641 61.4248 18.9614 61.3825C18.9587 61.3402 18.9666 61.2978 18.9845 61.2593C19.0024 61.2207 19.0297 61.1871 19.064 61.1616C19.4997 60.8438 19.9355 60.5124 20.3505 60.181C20.3879 60.1512 20.4328 60.1322 20.4805 60.1262C20.5281 60.1202 20.5765 60.1273 20.6202 60.1468C34.2011 66.1738 48.9094 66.1738 62.3312 60.1468C62.3751 60.1261 62.424 60.1181 62.4723 60.1235C62.5206 60.1289 62.5664 60.1477 62.6044 60.1776C63.0194 60.5124 63.4517 60.8438 63.8909 61.1616C63.9255 61.1866 63.9533 61.2197 63.9718 61.2579C63.9902 61.2962 63.9988 61.3383 63.9968 61.3806C63.9947 61.423 63.9821 61.4641 63.96 61.5004C63.9379 61.5367 63.907 61.567 63.8702 61.5887C61.8021 62.764 59.651 63.7583 57.3927 64.5851C57.358 64.5975 57.3264 64.6171 57.3 64.6426C57.2736 64.6681 57.253 64.6988 57.2396 64.7327C57.2262 64.7667 57.2203 64.8031 57.2222 64.8395C57.2242 64.8759 57.2339 64.9115 57.2509 64.9438C58.4959 67.2911 59.9207 69.5256 61.4874 71.6473C61.5199 71.6909 61.5653 71.7234 61.6173 71.7405C61.6693 71.7577 61.7254 71.7585 61.7779 71.743C69.2283 69.5278 76.2462 66.0842 82.5348 61.5579C82.5655 61.5367 82.5912 61.5093 82.6103 61.4775C82.6294 61.4457 82.6414 61.4102 82.6455 61.3734C84.3746 43.9689 79.7474 28.8467 70.3718 15.4466C70.3488 15.403 70.3108 15.3691 70.2646 15.3509ZM27.7375 52.2031C23.6497 52.2031 20.2779 48.5507 20.2779 44.0714C20.2779 39.5887 23.584 35.9397 27.7375 35.9397C31.9221 35.9397 35.2628 39.6195 35.1971 44.0714C35.1971 48.5541 31.891 52.2031 27.7375 52.2031V52.2031ZM55.3177 52.2031C51.2265 52.2031 47.8581 48.5507 47.8581 44.0714C47.8581 39.5887 51.1608 35.9397 55.3177 35.9397C59.5023 35.9397 62.843 39.6195 62.7773 44.0714C62.7773 48.5541 59.5057 52.2031 55.3177 52.2031V52.2031Z" fill="white"/>
</g>
<defs>
<clipPath id="clip0_534_48">
<rect width="83" height="82" fill="white"/>
</clipPath>
</defs>
</svg>
