<svg width="500" height="323" viewBox="0 0 500 323" fill="none" xmlns="http://www.w3.org/2000/svg">
<path d="M211 122L231 156L209 193.5L215.5 206L216 211.5L228 233.5C228.667 234.333 230.4 236.2 232 237C232 238.5 235.5 257.5 237 263C213 224.5 211.5 220.5 211.5 221C211.5 221.5 210 226 209.5 228C210 224 201.5 198 201 197C200.5 196 200.5 195.5 199.5 195C196.5 193 193.5 190.5 192.5 189.5C191.5 188.5 190.5 186.5 188 185C186 183.8 179.833 177.833 177 175L187 178L147 107.5L171.5 121L137.5 69.5L208.5 129.5L211 122Z" fill="white" stroke="white"/>
<path d="M288 122L268 156L290 193.5L283.5 206L283 211.5L271 233.5C270.333 234.333 268.6 236.2 267 237C267 238.5 263.5 257.5 262 263C286 224.5 287.5 220.5 287.5 221C287.5 221.5 289 226 289.5 228C289 224 297.5 198 298 197C298.5 196 298.5 195.5 299.5 195C302.5 193 305.5 190.5 306.5 189.5C307.5 188.5 308.5 186.5 311 185C313 183.8 319.167 177.833 322 175L312 178L352 107.5L327.5 121L361.5 69.5L290.5 129.5L288 122Z" fill="white" stroke="white"/>
<path d="M189 196.499C184 190.499 169.833 175.666 161 166.499C159.5 164.332 161.5 162.999 165 164.999C171.85 168.913 173 167.666 173 166.499C172 162.999 161 147.999 155.5 142.499C150 136.999 12.4999 12.4993 8.99985 9.49928C5.49985 6.49928 4.49985 7.49928 3.99985 8.99928C0.999768 102.999 108 146.999 134 159.499C160 171.999 159.5 185.999 160 188.499C160.5 190.999 158.5 235.999 160.5 246.499C162.5 256.999 185 290.999 189 294.999C193.4 298.199 194.5 296.332 194.5 294.999V290.999C194.9 277.399 197.667 252.332 199 241.499C202 219.999 194.5 204.999 189 196.499Z" fill="white"/>
<path d="M307.685 196.499C312.685 190.499 326.852 175.666 335.685 166.499C337.185 164.332 335.185 162.999 331.685 164.999C324.835 168.913 323.685 167.666 323.685 166.499C324.685 162.999 335.685 147.999 341.185 142.499C346.685 136.999 484.185 12.4993 487.685 9.49928C491.185 6.49928 492.185 7.49928 492.685 8.99928C495.685 102.999 388.685 146.999 362.685 159.499C336.685 171.999 337.185 185.999 336.685 188.499C336.185 190.999 338.185 235.999 336.185 246.499C334.185 256.999 311.685 290.999 307.685 294.999C303.285 298.199 302.185 296.332 302.185 294.999V290.999C301.785 277.399 299.018 252.332 297.685 241.499C294.685 219.999 302.185 204.999 307.685 196.499Z" fill="white"/>
<path d="M139 309.999C119.4 321.199 103.167 311.332 97.4999 304.999C95.9998 303.499 96.9998 301.999 98.4999 301.999C106.5 301.499 117 299.499 129 292.999C138 287.999 148 279.422 160 278.499C166.5 277.999 167.611 279.777 166.5 281.999C164.75 285.499 159.5 297.499 139 309.999Z" fill="white"/>
<path d="M357.877 309.999C377.477 321.199 393.71 311.332 399.377 304.999C400.877 303.499 399.877 301.999 398.377 301.999C390.377 301.499 379.877 299.499 367.877 292.999C358.877 287.999 348.877 279.422 336.877 278.499C330.377 277.999 329.266 279.777 330.377 281.999C332.127 285.499 337.377 297.499 357.877 309.999Z" fill="white"/>
<path d="M64.9995 263.999C86.9995 301.499 136.5 277.499 154 257.499C156.5 254.499 149.528 253.146 148.5 252.999C131 250.499 130.5 251.999 121.5 254.999C105 262.499 77.9995 259.999 67.9994 260.499C63.4995 259.999 63.9995 262.499 64.9995 263.999Z" fill="white"/>
<path d="M431.538 263.999C409.538 301.499 360.038 277.499 342.538 257.499C340.038 254.499 347.009 253.146 348.038 252.999C365.538 250.499 366.038 251.999 375.038 254.999C391.538 262.499 418.538 259.999 428.538 260.499C433.038 259.999 432.538 262.499 431.538 263.999Z" fill="white"/>
<path d="M36.9998 202.499C55.4999 251.499 111.5 251.499 144 232.499C149.5 228.999 141 224.999 138.5 223.499C126.5 216.499 120.5 215.999 106.5 215.999C82.4 215.999 56 205.999 42.5 199.999C37.6101 197.343 36.5856 200.225 36.9998 202.499Z" fill="white"/>
<path d="M459.486 202.499C440.986 251.499 384.986 251.499 352.486 232.499C346.986 228.999 355.486 224.999 357.986 223.499C369.986 216.499 375.986 215.999 389.986 215.999C414.086 215.999 440.486 205.999 453.986 199.999C458.876 197.343 459.9 200.225 459.486 202.499Z" fill="white"/>
<path d="M16.6279 111.518C24.9381 180.499 85.5 205.499 141.047 201.068C149.831 199.138 140.029 190.626 137.5 187.499C124 172.999 121.5 171.499 99.9999 160.999C78.5001 150.499 38.6485 125.686 23.9999 111.518C18.9226 105.76 17.1682 108.376 16.6279 111.518Z" fill="white" stroke="white"/>
<path d="M480.091 111.518C471.781 180.499 411.219 205.499 355.672 201.068C346.889 199.138 356.691 190.626 359.219 187.499C372.719 172.999 375.219 171.499 396.719 160.999C418.219 150.499 458.071 125.686 472.719 111.518C477.797 105.76 479.551 108.376 480.091 111.518Z" fill="white" stroke="white"/>
<path fill-rule="evenodd" clip-rule="evenodd" d="M215.5 129L242 173.5L247 175H249.5L258 230.5L250 283L249 282L236.5 263L233.5 258L206.5 186.5L215.5 129ZM219.5 202V207L229.5 225.5L235 229.5L233.5 218L224 202H219.5Z" fill="white"/>
<path fill-rule="evenodd" clip-rule="evenodd" d="M283 129.5L256.5 173.5L251.5 175H249L238.5 212L250 283L262.5 263L286.5 223L292 186.5L283 129.5ZM279.5 202V207L269.5 225.5L264 229.5L265.5 218L275 202H279.5Z" fill="white"/>
</svg>
