<svg width="500" height="500" viewBox="0 0 500 500" fill="none" xmlns="http://www.w3.org/2000/svg">
<g clip-path="url(#clip0_380_2)">
<path d="M211 133L231 167L209 204.5L215.5 217L216 222.5L228 244.5C228.667 245.333 230.4 247.2 232 248C232 249.5 235.5 268.5 237 274C213 235.5 211.5 231.5 211.5 232C211.5 232.5 210 237 209.5 239C210 235 201.5 209 201 208C200.5 207 200.5 206.5 199.5 206C196.5 204 193.5 201.5 192.5 200.5C191.5 199.5 190.5 197.5 188 196C186 194.8 179.833 188.833 177 186L187 189L147 118.5L171.5 132L137.5 80.5L208.5 140.5L211 133Z" fill="black" stroke="black"/>
<path d="M288 133L268 167L290 204.5L283.5 217L283 222.5L271 244.5C270.333 245.333 268.6 247.2 267 248C267 249.5 263.5 268.5 262 274C286 235.5 287.5 231.5 287.5 232C287.5 232.5 289 237 289.5 239C289 235 297.5 209 298 208C298.5 207 298.5 206.5 299.5 206C302.5 204 305.5 201.5 306.5 200.5C307.5 199.5 308.5 197.5 311 196C313 194.8 319.167 188.833 322 186L312 189L352 118.5L327.5 132L361.5 80.5L290.5 140.5L288 133Z" fill="black" stroke="black"/>
<path d="M189 207.5C184 201.5 169.833 186.667 161 177.5C159.5 175.333 161.5 174 165 176C171.85 179.914 173 178.667 173 177.5C172 174 161 159 155.5 153.5C150 148 12.5001 23.5 9.00009 20.5C5.50009 17.5 4.50009 18.5 4.00009 20C1.00001 114 108 158 134 170.5C160 183 159.5 197 160 199.5C160.5 202 158.5 247 160.5 257.5C162.5 268 185 302 189 306C193.4 309.2 194.5 307.333 194.5 306V302C194.9 288.4 197.667 263.333 199 252.5C202 231 194.5 216 189 207.5Z" fill="black"/>
<path d="M307.685 207.5C312.685 201.5 326.852 186.667 335.685 177.5C337.185 175.333 335.185 174 331.685 176C324.835 179.914 323.685 178.667 323.685 177.5C324.685 174 335.685 159 341.185 153.5C346.685 148 484.185 23.5 487.685 20.5C491.185 17.5 492.185 18.5 492.685 20C495.685 114 388.685 158 362.685 170.5C336.685 183 337.185 197 336.685 199.5C336.185 202 338.185 247 336.185 257.5C334.185 268 311.685 302 307.685 306C303.285 309.2 302.185 307.333 302.185 306V302C301.785 288.4 299.018 263.333 297.685 252.5C294.685 231 302.185 216 307.685 207.5Z" fill="black"/>
<path d="M139 321C119.4 332.2 103.167 322.333 97.4999 316C95.9998 314.5 96.9998 313 98.4999 313C106.5 312.5 117 310.5 129 304C138 299 148 290.423 160 289.5C166.5 289 167.611 290.778 166.5 293C164.75 296.5 159.5 308.5 139 321Z" fill="black"/>
<path d="M357.877 321C377.477 332.2 393.71 322.333 399.377 316C400.877 314.5 399.877 313 398.377 313C390.377 312.5 379.877 310.5 367.877 304C358.877 299 348.877 290.423 336.877 289.5C330.377 289 329.266 290.778 330.377 293C332.127 296.5 337.377 308.5 357.877 321Z" fill="black"/>
<path d="M65 275C87 312.5 136.5 288.5 154 268.5C156.5 265.5 149.528 264.147 148.5 264C131 261.5 130.5 263 121.5 266C105 273.5 78 271 67.9999 271.5C63.5 271 64 273.5 65 275Z" fill="black"/>
<path d="M431.538 275C409.538 312.5 360.038 288.5 342.538 268.5C340.038 265.5 347.009 264.147 348.038 264C365.538 261.5 366.038 263 375.038 266C391.538 273.5 418.538 271 428.538 271.5C433.038 271 432.538 273.5 431.538 275Z" fill="black"/>
<path d="M36.9998 213.5C55.4999 262.5 111.5 262.5 144 243.5C149.5 240 141 236 138.5 234.5C126.5 227.5 120.5 227 106.5 227C82.4 227 56 217 42.5 211C37.6101 208.344 36.5856 211.226 36.9998 213.5Z" fill="black"/>
<path d="M459.486 213.5C440.986 262.5 384.986 262.5 352.486 243.5C346.986 240 355.486 236 357.986 234.5C369.986 227.5 375.986 227 389.986 227C414.086 227 440.486 217 453.986 211C458.876 208.344 459.9 211.226 459.486 213.5Z" fill="black"/>
<path d="M16.628 122.519C24.9382 191.5 85.5001 216.5 141.047 212.069C149.831 210.139 140.029 201.627 137.5 198.5C124 184 121.5 182.5 100 172C78.5002 161.5 38.6486 136.687 24 122.519C18.9227 116.761 17.1683 119.377 16.628 122.519Z" fill="black" stroke="black"/>
<path d="M480.091 122.519C471.781 191.5 411.219 216.5 355.672 212.069C346.889 210.139 356.691 201.627 359.219 198.5C372.719 184 375.219 182.5 396.719 172C418.219 161.5 458.071 136.687 472.719 122.519C477.797 116.761 479.551 119.377 480.091 122.519Z" fill="black" stroke="black"/>
<path fill-rule="evenodd" clip-rule="evenodd" d="M215.5 140L242 184.5L247 186H249.5L258 241.5L250 294L249 293L236.5 274L233.5 269L206.5 197.5L215.5 140ZM219.5 213V218L229.5 236.5L235 240.5L233.5 229L224 213H219.5Z" fill="black"/>
<path fill-rule="evenodd" clip-rule="evenodd" d="M283 140.5L256.5 184.5L251.5 186H249L238.5 223L250 294L262.5 274L286.5 234L292 197.5L283 140.5ZM279.5 213V218L269.5 236.5L264 240.5L265.5 229L275 213H279.5Z" fill="black"/>
</g>
<defs>
<clipPath id="clip0_380_2">
<rect width="500" height="500" fill="white"/>
</clipPath>
</defs>
</svg>
